<?xml version="1.0" encoding="utf-8"?>
<!-- Svg Vector Icons : http://www.onlinewebfonts.com/icon -->
<!DOCTYPE svg PUBLIC "-//W3C//DTD SVG 1.1//EN" "http://www.w3.org/Graphics/SVG/1.1/DTD/svg11.dtd">
<svg version="1.1" xmlns="http://www.w3.org/2000/svg" xmlns:xlink="http://www.w3.org/1999/xlink" x="0px" y="0px" viewBox="0 0 256 256" enable-background="new 0 0 256 256" xml:space="preserve">
<metadata> Svg Vector Icons : http://www.onlinewebfonts.com/icon </metadata>
<g><g><g><path fill="#000000" d="M20.1,37.2c-0.2,0.6-3.3,26.5-3.2,26.7c0.1,0.1,10.8,1.5,23.7,3.1s24,3.2,24.5,3.5c1,0.6,19.4,14.6,20.4,15.6c0.3,0.2-1.8,3.3-4.9,6.9c-3,3.5-5.3,6.6-5.1,6.9c0.2,0.2,9,7.8,19.5,16.7c10.6,9,19.7,16.7,20.3,17.2c1,0.9,1,1.2,0.1,3.9c-2.1,6.7,0,14.2,5.3,19.2c5.6,5.4,35.6,30.3,37.8,31.5c1.7,0.8,3.9,1.3,7.3,1.5c4.5,0.2,5.2,0.1,8.7-1.6c3.3-1.5,4.7-2.7,9.1-8c2.9-3.4,6.2-7.1,7.1-8.1l1.8-2l8.4,7.2l8.4,7.1l1.8-1.9c1-1.1,3-3.4,4.5-5.2c2.7-3.1,2.8-3.2,4.2-2.3c2.8,1.9,10,9.4,12.4,13.1c5,7.7,6.1,16.1,3,23.2c-0.7,1.7-1.2,3.2-1.1,3.3c0.5,0.4,6.9,3.9,7.2,3.9c0.2,0,1-1.6,1.9-3.4c6.4-14.5,1.1-30.6-14.5-44.2c-2.2-1.9-3.9-3.6-4.1-3.8c-0.1-0.2,1.8-2.6,4.1-5.4c4.1-4.8,4.2-5.1,3.1-6c-0.6-0.5-12.5-10.6-26.5-22.4c-14-11.8-25.6-21.6-25.9-21.8c-0.3-0.2,1.4-4.2,3.7-8.8l4.2-8.4l-37.1-19C130,65.1,113,56.5,112.6,56.4c-0.4-0.1-2.5,1.9-4.5,4.4c-2,2.5-3.9,4.5-4.1,4.5c-0.2-0.1-5.1-4.1-10.9-9C82.4,47.1,77.3,43.8,73,43.3c-1.3-0.2-13.3-1.6-26.7-3.2C22.6,37.2,20.2,36.9,20.1,37.2z M51.3,50.3c11,1.3,21,2.6,22.2,3c1.4,0.4,5.9,3.8,12.9,9.6c5.9,5,10.9,9.2,11.2,9.4c0.2,0.2-0.9,1.9-2.5,3.6l-2.9,3.2l-11.4-8.8c-6.3-4.8-11.9-9-12.4-9.2c-0.6-0.2-9.9-1.5-20.8-2.9l-19.8-2.5l0.2-3.5c0.2-4.6,0.4-5,2-4.7C30.6,47.8,40.3,49,51.3,50.3z M145.1,83.5l29.8,15.3l-3.9,7.4l-3.9,7.4l1.7,1.4c34.1,28.8,50.7,42.9,50.6,43.2c-0.2,0.8-10.6,12.8-11,12.8c-0.3,0-3.4-2.5-7-5.6c-10.9-9.4-64.7-54.8-64.9-54.8c-0.1,0-3.4,3.8-7.2,8.4l-7.1,8.3l-5.4-4.6c-3-2.6-10.5-8.9-16.6-14.1c-6.2-5.2-11.2-9.7-11.2-10c0-0.3,3.8-5,8.5-10.5c4.7-5.5,10.4-12.2,12.6-14.9c2.2-2.7,4.3-4.9,4.6-4.9C115,68.2,128.7,75.1,145.1,83.5z M140.5,132.8c3.9,7.2,7.5,15.9,12,29.3c2.2,6.4,4.1,11.7,4.2,11.8c0.2,0.3,7.1-2.2,7.7-2.8c0.5-0.5-6.2-20.4-9.4-28.2c-1.2-2.8-2.2-5.3-2.2-5.5s7.2,5.6,16,13.1c8.8,7.5,15.9,13.8,15.8,14c-0.5,1.7-12.5,14.8-14.1,15.5c-2.7,1.1-6.8,0.8-8.8-0.7c-1-0.7-9.5-7.8-19-15.8c-17.9-15.2-18.5-15.9-18.5-20.4c0-2.8,0.5-3.7,6.8-11.1C137.1,124.7,136.1,124.6,140.5,132.8z"/><path fill="#000000" d="M36.3,117.9C19.4,138.4,10,155.4,10,165.1c0.1,13.3,10.8,26.8,23.9,29.8c4.5,1,12,0.8,16.2-0.5c12.2-3.8,20.2-13.2,22.1-25.9c0.5-3.5,0.5-5.1-0.3-8.4c-1.9-7.9-8-19-17.7-32c-5.6-7.5-12.4-15.6-13-15.6C41,112.4,38.8,114.9,36.3,117.9z M46,132.6c12.5,16.5,17.8,27.4,16.9,34.5c-0.9,7.5-6.9,15-13.9,17.6c-5,1.9-12.9,1.5-17.3-0.8c-9.5-4.9-14.1-15.4-10.9-25c1.4-4.2,5.9-12.4,10.1-18.4c3.1-4.5,10.2-13.8,10.5-13.8C41.4,126.8,43.5,129.4,46,132.6z"/></g></g></g>
</svg>